<svg viewBox="0 0 662.63 383.07" xmlns="http://www.w3.org/2000/svg"><path fill="#F9A231" d="M112.8 383.07h38.32l38.57-275.39 141.82 275.39h10.47l139.85-273.41 39.31 273.41h39.06L503.27 0h-6.46L337.43 314.43 175.2 0h-6.25z"/><g fill="#06AFE3"><path d="M9.572 183.17h10.253l12.816 38.56 12.932-38.56h10.246l9.274 55.284H54.917l-5.928-34.914-11.745 34.914H27.97L16.33 203.54l-6.069 34.914H0l9.572-55.284zM106.5 181.78c7.822 0 14.547 2.832 20.176 8.494s8.443 12.565 8.443 20.708c0 8.067-2.777 14.896-8.331 20.482-5.553 5.587-12.291 8.381-20.213 8.381-8.299 0-15.193-2.869-20.684-8.606s-8.236-12.553-8.236-20.445c0-5.286 1.278-10.146 3.836-14.582 2.557-4.435 6.074-7.948 10.549-10.542 4.475-2.593 9.295-3.89 14.46-3.89zm-.112 10.298c-5.117 0-9.418 1.779-12.904 5.337s-5.229 8.08-5.229 13.567c0 6.113 2.195 10.949 6.584 14.507 3.411 2.781 7.324 4.172 11.738 4.172 4.991 0 9.242-1.805 12.753-5.412 3.512-3.608 5.268-8.055 5.268-13.342 0-5.262-1.769-9.715-5.305-13.36s-7.839-5.469-12.905-5.469zM152.68 183.17h11.149c6.106 0 10.454.545 13.044 1.635s4.674 2.9 6.25 5.43c1.577 2.531 2.365 5.525 2.365 8.982 0 3.633-.871 6.671-2.612 9.114-1.741 2.442-4.366 4.29-7.873 5.543l13.097 24.579h-11.504l-12.432-23.414h-.963v23.414h-10.523V183.17zm10.523 21.611h3.297c3.347 0 5.651-.44 6.913-1.319 1.261-.88 1.892-2.338 1.892-4.375 0-1.206-.313-2.255-.937-3.147s-1.461-1.533-2.51-1.924c-1.049-.39-2.972-.585-5.77-.585h-2.885v11.35zM229.65 181.78c7.822 0 14.547 2.832 20.176 8.494s8.443 12.565 8.443 20.708c0 8.067-2.777 14.896-8.331 20.482-5.553 5.587-12.291 8.381-20.213 8.381-8.299 0-15.193-2.869-20.684-8.606s-8.236-12.553-8.236-20.445c0-5.286 1.278-10.146 3.836-14.582 2.557-4.435 6.074-7.948 10.549-10.542 4.475-2.593 9.294-3.89 14.46-3.89zm-.113 10.298c-5.117 0-9.418 1.779-12.904 5.337s-5.229 8.08-5.229 13.567c0 6.113 2.195 10.949 6.584 14.507 3.411 2.781 7.324 4.172 11.738 4.172 4.991 0 9.242-1.805 12.753-5.412 3.512-3.608 5.268-8.055 5.268-13.342 0-5.262-1.769-9.715-5.305-13.36s-7.839-5.469-12.905-5.469zM325.93 192.89l-7.36 7.017c-5.006-5.292-10.639-7.938-16.897-7.938-5.282 0-9.731 1.806-13.349 5.417s-5.426 8.063-5.426 13.355c0 3.687.801 6.959 2.403 9.818s3.867 5.104 6.796 6.734 6.184 2.445 9.763 2.445c3.054 0 5.845-.57 8.374-1.712 2.528-1.142 5.307-3.217 8.336-6.226l7.136 7.443c-4.086 3.986-7.944 6.75-11.577 8.292-3.633 1.54-7.78 2.312-12.44 2.312-8.594 0-15.628-2.725-21.103-8.174-5.475-5.45-8.212-12.434-8.212-20.953 0-5.512 1.246-10.41 3.739-14.694s6.063-7.729 10.711-10.335c4.647-2.605 9.652-3.908 15.014-3.908 4.56 0 8.951.963 13.173 2.889 4.222 1.927 7.863 4.667 10.919 8.218zM392.88 192.89l-7.36 7.017c-5.007-5.292-10.64-7.938-16.897-7.938-5.282 0-9.731 1.806-13.349 5.417s-5.426 8.063-5.426 13.355c0 3.687.801 6.959 2.402 9.818 1.603 2.859 3.868 5.104 6.797 6.734s6.184 2.445 9.764 2.445c3.053 0 5.845-.57 8.373-1.712s5.307-3.217 8.336-6.226l7.135 7.443c-4.085 3.986-7.943 6.75-11.576 8.292-3.633 1.54-7.779 2.312-12.439 2.312-8.594 0-15.629-2.725-21.103-8.174-5.475-5.45-8.212-12.434-8.212-20.953 0-5.512 1.246-10.41 3.739-14.694s6.063-7.729 10.711-10.335c4.647-2.605 9.652-3.908 15.015-3.908 4.56 0 8.95.963 13.173 2.889 4.22 1.927 7.859 4.667 10.917 8.218zM425.88 183.17h10.672l21.264 55.284h-10.937l-4.326-11.388h-22.558l-4.498 11.388H404.56l21.32-55.284zm5.402 14.658l-7.418 18.979h14.791l-7.373-18.979zM472.91 183.17h10.095l23.654 36.38v-36.38h10.523v55.284h-10.123l-23.626-36.268v36.268H472.91V183.17zM562.84 181.78c7.822 0 14.547 2.832 20.176 8.494s8.443 12.565 8.443 20.708c0 8.067-2.777 14.896-8.33 20.482-5.554 5.587-12.292 8.381-20.214 8.381-8.299 0-15.193-2.869-20.684-8.606s-8.236-12.553-8.236-20.445c0-5.286 1.278-10.146 3.836-14.582 2.558-4.435 6.073-7.948 10.549-10.542 4.475-2.593 9.295-3.89 14.46-3.89zm-.113 10.298c-5.116 0-9.418 1.779-12.904 5.337s-5.229 8.08-5.229 13.567c0 6.113 2.194 10.949 6.584 14.507 3.41 2.781 7.323 4.172 11.737 4.172 4.991 0 9.242-1.805 12.753-5.412 3.512-3.608 5.268-8.055 5.268-13.342 0-5.262-1.769-9.715-5.305-13.36s-7.838-5.469-12.904-5.469zM607.56 183.17h10.447v55.284H607.56V183.17zM636.77 183.17h10.523v45.25h15.334v10.034H636.77V183.17z"/></g></svg>