<svg class="logo" xmlns="http://www.w3.org/2000/svg" viewBox="0 0 662.627 387.646"><path d="M500.664.001c-4.13.049-7.472 1.383-8.35 6.727-37.54 74.062-75.081 148.124-112.623 222.185 1.829-1.182 3.769-2.787 5.829-4.833l7.136 7.443c-4.085 3.986-7.943 6.75-11.576 8.293-2.421 1.026-5.076 1.702-7.953 2.045l-35.713 70.457-36.22-70.201c-8.368-.104-15.24-2.821-20.608-8.164-5.475-5.45-8.211-12.435-8.211-20.954 0-5.512 1.245-10.409 3.738-14.693.426-.732.896-1.43 1.385-2.113C243.804 130.889 210.112 65.584 176.418.28c-2.756.797-9.168-1.83-9.447 1.709L110.486 387.35h42.373l21.204-151.389-9.899-18.642h-.963v23.414h-10.523V185.45H163.83c6.106 0 10.453.544 13.043 1.634 1.38.58 2.611 1.37 3.703 2.36l10.22-72.969 34.94 67.846a29.49 29.49 0 013.914-.262c7.822 0 14.547 2.832 20.176 8.494 5.63 5.662 8.444 12.564 8.444 20.707 0 7.662-2.511 14.205-7.522 19.63l79.543 154.46c4.631-1.222 12.528 2.891 14.383-2.871l79.351-155.135h-4.029l-4.498 11.389h-10.937l21.32-55.283h10.672l4.26 11.074c13.31-26.024 26.622-52.047 39.933-78.07l11.727 81.554 14.187 21.82v-36.378h10.522v55.283h-10.123l-11.205-17.2c7.85 54.606 15.701 109.212 23.554 163.817h43.11c-7.81-52.559-15.623-105.117-23.434-157.676-3.388-4.87-5.088-10.402-5.088-16.601 0-3.079.447-6.007 1.315-8.797L504.994.28c-1.49-.169-2.953-.296-4.33-.28zm34.647 204.276l3.773 25.398a31.897 31.897 0 003.148 3.844c5.491 5.737 12.385 8.605 20.684 8.605 7.922 0 14.659-2.793 20.213-8.38 5.553-5.586 8.33-12.416 8.33-20.483 0-8.143-2.814-15.045-8.443-20.707-5.63-5.662-12.354-8.494-20.176-8.494-5.165 0-9.984 1.298-14.46 3.89-4.475 2.595-7.99 6.107-10.548 10.542a28.43 28.43 0 00-2.521 5.785zm-39.457 19.258l-3.381-23.526-9.467-14.558H472.91v55.283h10.524v-36.268zm-55.041-27.01l-6.208 12.137 4.051 10.425h-9.385l-5.246 10.258h18.528l4.326 11.389h10.937zm-11.542 22.562l5.334-10.425-3.322-8.553-7.418 18.978zM250.748 232.89l-5.318-10.328a18.635 18.635 0 01-2.951 3.967c-3.511 3.607-7.761 5.412-12.752 5.412-4.414 0-8.328-1.391-11.739-4.172-4.389-3.558-6.584-8.395-6.584-14.508 0-5.487 1.743-10.008 5.229-13.566 3.486-3.558 7.787-5.336 12.904-5.336.476 0 .939.03 1.4.062l-5.2-10.1c-3.706.496-7.221 1.703-10.546 3.63-4.475 2.594-7.993 6.106-10.55 10.54-2.558 4.437-3.836 9.297-3.836 14.583 0 7.892 2.745 14.708 8.236 20.445 5.491 5.737 12.385 8.605 20.684 8.605 7.922 0 14.66-2.793 20.213-8.38.278-.28.545-.567.81-.854zm-19.81-38.469l14.492 28.14c1.534-2.76 2.318-5.88 2.318-9.374 0-5.262-1.769-9.714-5.305-13.36-3.204-3.302-7.045-5.095-11.505-5.406zm-50.362-4.976l-3.627 25.898c2.544-1.195 4.527-2.768 5.928-4.732 1.74-2.443 2.611-5.48 2.611-9.114 0-3.457-.788-6.45-2.365-8.982a14.339 14.339 0 00-2.547-3.07zm-3.627 25.898c-.618.29-1.26.566-1.945.81l1.451 2.725.494-3.535zm-.494 3.535l-2.393 17.084 2.534 4.772H188.1zm101.043-22.685l6.047 11.719c.812-3.112 2.394-5.866 4.78-8.247 3.617-3.61 8.067-5.416 13.349-5.416 6.258 0 11.89 2.646 16.896 7.938l7.36-7.018c-3.056-3.55-6.696-6.29-10.918-8.216-4.222-1.926-8.614-2.89-13.174-2.89-5.362 0-10.367 1.302-15.014 3.907-3.854 2.16-6.954 4.909-9.326 8.223zm6.047 11.719a20.12 20.12 0 00-.647 5.109c0 3.687.8 6.96 2.403 9.818 1.602 2.86 3.868 5.105 6.797 6.735a18.95 18.95 0 003.382 1.47l-11.935-23.132zm11.935 23.132c1.905 3.691 3.81 7.382 5.713 11.073.166.002.33.01.496.01 4.66 0 8.807-.77 12.44-2.31 3.633-1.543 7.492-4.308 11.578-8.294l-7.137-7.443c-3.029 3.009-5.808 5.084-8.336 6.226-2.529 1.142-5.319 1.711-8.373 1.711-2.255 0-4.383-.325-6.38-.972zm77.647 10.817l6.564-12.947a19.303 19.303 0 01-2.507 1.392c-2.528 1.142-5.32 1.711-8.373 1.711-3.58 0-6.835-.813-9.764-2.443-2.93-1.63-5.194-3.876-6.797-6.735-1.601-2.859-2.402-6.131-2.402-9.818 0-5.292 1.81-9.745 5.427-13.356 3.618-3.61 8.066-5.416 13.348-5.416 6.257 0 11.89 2.646 16.897 7.938l7.36-7.018c-3.057-3.55-6.697-6.29-10.917-8.216-4.223-1.926-8.612-2.89-13.172-2.89-5.363 0-10.369 1.302-15.016 3.907-4.648 2.606-8.218 6.052-10.71 10.336-2.494 4.284-3.739 9.181-3.739 14.693 0 8.52 2.736 15.504 8.211 20.954 5.474 5.449 12.51 8.173 21.104 8.173 1.554 0 3.046-.094 4.486-.265zM106.5 184.06c-5.165 0-9.984 1.298-14.459 3.89-4.475 2.595-7.992 6.107-10.549 10.542-2.558 4.436-3.836 9.296-3.836 14.582 0 7.892 2.744 14.708 8.235 20.445 5.49 5.737 12.386 8.605 20.685 8.605 7.922 0 14.66-2.793 20.213-8.38 5.554-5.586 8.33-12.416 8.33-20.483 0-8.143-2.814-15.045-8.443-20.707-5.63-5.662-12.354-8.494-20.176-8.494zm-96.928 1.39L0 240.735h10.262l6.068-34.914 11.64 34.914h9.274L48.99 205.82l5.928 34.914h10.176L55.82 185.45H45.574l-12.933 38.558-12.815-38.558zm597.989 0v55.284h10.447V185.45zm29.209 0v55.284h25.857V230.7h-15.334v-45.25zm-530.381 8.909c5.066 0 9.368 1.824 12.904 5.469 3.536 3.645 5.305 8.097 5.305 13.359 0 5.287-1.756 9.734-5.268 13.342-3.51 3.607-7.76 5.412-12.752 5.412-4.414 0-8.327-1.391-11.738-4.172-4.39-3.558-6.584-8.395-6.584-14.508 0-5.487 1.742-10.008 5.228-13.566 3.486-3.558 7.788-5.336 12.905-5.336zm456.338 0c5.066 0 9.368 1.824 12.904 5.469 3.536 3.645 5.305 8.097 5.305 13.359 0 5.287-1.756 9.734-5.268 13.342-3.511 3.607-7.761 5.412-12.752 5.412-4.414 0-8.328-1.391-11.738-4.172-4.39-3.558-6.584-8.395-6.584-14.508 0-5.487 1.744-10.008 5.23-13.566 3.486-3.558 7.787-5.336 12.903-5.336zm-399.524 1.351v11.352h3.297c3.347 0 5.652-.441 6.914-1.32 1.261-.88 1.89-2.338 1.89-4.375 0-1.206-.31-2.255-.935-3.147-.624-.892-1.46-1.533-2.51-1.924-1.049-.39-2.973-.586-5.771-.586z"/></svg>