<svg xmlns="http://www.w3.org/2000/svg" ><path d="M150.602 0C67.559 0 0 67.559 0 150.602v210.797C0 444.441 67.559 512 150.602 512s150.602-67.559 150.602-150.602V150.602C301.203 67.559 233.645 0 150.602 0zm119.882 361.398c0 66.102-53.781 119.883-119.883 119.883S30.719 427.5 30.719 361.398V150.602C30.719 84.5 84.5 30.719 150.602 30.719S270.484 84.5 270.484 150.602v210.796z"/><path d="M150.605 101.852c-8.484 0-15.359 6.875-15.359 15.359v70.695c0 8.48 6.875 15.359 15.359 15.359 8.48 0 15.359-6.879 15.359-15.359v-70.695c.001-8.484-6.874-15.359-15.359-15.359z"/></svg>