<svg enable-background="new 138.166 22.111 115.979 18.73" viewBox="138.17 22.111 115.98 18.73" xmlns="http://www.w3.org/2000/svg"><g transform="translate(135 22)"><path d="M4.967 9.462c0 4.355 3.358 7.48 7.246 7.48 4.03 0 7.317-3.149 7.317-7.579 0-4.479-3.503-7.529-7.317-7.529-3.791 0-7.246 3.1-7.246 7.628m16.363-.074c0 5.192-3.959 9.277-9.07 9.277-5.303 0-9.094-4.257-9.094-9.203 0-5.267 3.983-9.351 8.95-9.351 5.231 0 9.214 4.011 9.214 9.277M26.584.555h1.727V16.5h6.623v1.722h-8.35zM46.307 4.295l-2.976 6.397h5.902l-2.926-6.397zm.214-3.74l8.038 17.667h-1.847L50 12.414h-7.438l-2.687 5.808h-1.919L46.113.555h.408zM60.75 2.276v6.005c.983.023 1.967 0 2.855 0 1.486 0 2.639-.1 3.406-.738.6-.492 1.008-1.403 1.008-2.289 0-.91-.432-1.796-1.08-2.313-.768-.591-1.799-.665-3.143-.665H60.75zM59.021.555h3.983c1.8 0 3.144.123 3.983.442 1.751.688 2.831 2.264 2.831 4.257 0 1.674-.769 3.076-1.991 3.863-1.225.787-3 .886-5.375.886H60.75v8.219h-1.729V.555zM75.049.555h1.728V16.5h6.621v1.722h-8.349zM87.957.555h9.838v1.721h-8.109v5.537h8.109v1.722h-8.109V16.5h8.109v1.722h-9.838zM101.7.555h2.02l4.13 6.888L112 .555h1.99l-5.13 8.562 5.47 9.105h-2.02l-4.46-7.407-4.51 7.407h-2.02l5.5-9.105z"/><defs><filter id="a" x="116.94" y="16.592" width="2.2" height="2.25" filterUnits="userSpaceOnUse"><feColorMatrix values="1 0 0 0 0 0 1 0 0 0 0 0 1 0 0 0 0 0 1 0"/></filter></defs><mask id="b" x="116.944" y="16.592" width="2.2" height="2.25" maskUnits="userSpaceOnUse"><g filter="url(#a)"><path fill="#fff" d="M119.14 18.842v-2.25h-2.2v2.25z"/></g></mask><path d="M117.79 17.248v.384h.356c.145 0 .217-.06.217-.192 0-.176-.118-.191-.253-.191h-.32zm-.205-.185h.531c.084 0 .169 0 .229.021.136.047.22.176.22.331 0 .18-.069.235-.16.297.112.056.146.118.146.294v.146c0 .124.045.171.066.208h-.224a1.033 1.033 0 01-.03-.192l-.009-.157c-.009-.14-.045-.192-.199-.192h-.365v.542h-.205v-1.298zm.462-.323c-.528 0-.95.442-.95.979 0 .551.438.975.95.975s.944-.431.944-.975c0-.527-.416-.979-.944-.979zm0 2.102a1.11 1.11 0 01-1.102-1.123c0-.607.477-1.127 1.102-1.127.612 0 1.099.514 1.099 1.127 0 .631-.504 1.123-1.099 1.123z" mask="url(#b)"/></g></svg>