<svg viewBox="2.02 242.48 610.07 259.76" xmlns="http://www.w3.org/2000/svg"><path d="M349.94 305.27c.237-5.095-.108-10.623 1.684-15.113 1.132-5.09.733-10.4-1.144-15.265a26.959 26.959 0 00-6.478-16.495c-3.757-5.225-9.975-5.959-14.682-9.781-4.317-3.843-10.255-4.318-16.149-4.081a52.692 52.692 0 01-10.687-1.641 29.08 29.08 0 00-15.74 1.684c-3.8.734-7.88.799-11.227 2.591-4.318 2.332-9.414 3.713-12.479 8.161-2.396 2.893-5.462 5.16-6.11 8.895-.54 4.556.151 9.133 4.016 12.069 1.123 1.252 3.217 1.252 3.67 2.936a47.915 47.915 0 01-3.13 8.896c-1.986 3.368 3.065 5.268 1.209 8.766l-7.06 12.458a12.804 12.804 0 00-1.922 5.7c.842 3.476 4.987 2.159 7.125 4.318 1.468 1.921-.842 3.346-.95 5.095-.475 1.446 1.986 2.159.95 3.605-1.36 2.159 1.08 3.843 1.749 5.765.237 2.807-1.555 5.873.647 8.161 5.419 3.843 13.818.842 19.431 3.649 2.958 2.159 2.289 6.131 2.289 9.305-1.619 13.624-8.226 25.326-16.625 36.013a4.946 4.946 0 00-1.036 4.556 6.193 6.193 0 004.318 0c15.545-5.29 27.614-18.74 42.663-25.045 5.829-2.807 12.414-3.843 18.848-5.268 1.555-1.188.713-3.368.303-4.987-3.109-8.269-6.736-16.56-6.11-26.06 0-3.411 3.887-4.318 6.305-5.505 4.016-1.08 6.671-5.225 8.355-8.636 3.368-4.512 7.362-8.831 7.924-14.595l.043-.151zM97.48 465.3a44.934 44.934 0 01-10.623 1.145c-7.017 0-11.097-1.813-14.768-6.478a26.447 26.447 0 01-5.16-16.517c0-13.515 7.751-23.576 18.309-23.576h2.267l4.75 10.406h6.585v-11.918a41.02 41.02 0 00-13.365-2.591c-17.402 0-29.061 12.112-29.061 30.227 0 15.912 9.37 27.247 22.756 27.247a45.824 45.824 0 0013.429-2.396l5.462-1.813 1.08-.367-.605-3.735-1.058.238v.128zm58.445-31.867c0-11.184-5.808-18.244-14.983-18.244-3.714 0-8.831 1.685-16.797 5.527l-1.447.604v-38.56l-19.28 4.685v2.504l8.852 3.131v72.09l-8.291 4.08v2.958h26.88v-2.958l-8.183-4.08v-41.022a39.726 39.726 0 019.975-1.446c9.306 0 12.955 3.973 12.955 13.321v29.061l-8.291 4.081v2.958h27.269v-2.958l-8.636-4.081v-31.651h-.023zm67.837-14.12l7.967 3.778-11.335 34.934v-.476c-.499-2-1.119-3.969-1.856-5.894l-10.795-35.279h-4.124l-14.422 42.317-.367-1.749-.993-3.281-.95-3.261-9.046-28.262 7.837-2.828v-2.914h-25.282v2.936l6.369 3.261 17.51 50.845h5.16l13.516-39.359 12.415 39.359h4.858l18.74-50.24 6.348-3.778V416.4h-21.59v2.936l.04-.023zm61.36 41.172v-30.917c0-9.241-5.117-13.797-15.718-13.797a61.01 61.01 0 00-18.784 4.017v10.579h6.477l4.577-9.673a12.142 12.142 0 012.872-.237c8.226 0 10.795 2.354 10.795 9.543v12.608a144.346 144.346 0 00-18.158 2.764c-7.427 1.792-11.443 6.369-11.443 13.321 0 8.291 6.045 14.163 14.811 14.163 1.8.04 3.592-.245 5.29-.842l4.879-2.159 3.649-1.856 1.274-.713c.734 3.844 2.526 5.657 5.765 5.657h.41a21.328 21.328 0 004.577-.843l7.815-2.828v-2.461l-6.067-1.813c-2.763-.95-3.001-1.447-3.001-4.318l-.02-.195zm-9.737 4.319l-.907.173a18.705 18.705 0 01-3.476.842 15.13 15.13 0 01-4.081.475c-6.477 0-10.406-3.648-10.406-9.37 0-4.793 2.289-7.491 7.448-8.873a80.133 80.133 0 0111.4-2.159v18.913h.022zm42.209-43.181l-.733.367v-7.298l-19.086 4.923v2.72l8.463 2.807v40.029l-8.463 4.08v2.958h30.076v-2.958l-10.989-4.08v-40.029a21.016 21.016 0 017.858-1.727h2.699l3.238 6.865h7.427v-12.954a9.747 9.747 0 00-5.462-1.728c-3.066 0-7.924 1.965-15.113 5.938l.085.087zm26.945 10.363h3.67l5.333-10.363h18.676l-30.227 46.765v3.843h42.856v-17.423H381.5l-5.829 12.155h-20.77l30.291-46.852v-3.713h-40.654v15.717-.129zm77.186 6.477l15.113-15.652 10.558-3.605v-2.807H422.33v2.807l7.146 3.001-19.13 19.755 22.52 30.227h16.214v-2.958l-7.794-3.347-19.561-27.421zm-11.94-55.703l-19.69 4.685v2.504l9.327 3.131v72.09l-8.831 4.08v2.958h28.067v-2.958l-8.744-4.08v-82.411h-.129zm191.25 3.239c-14.897 0-24.98 8.766-24.98 22.325v8.053h-8.636v5.247h8.334v43.569l-8.334 4.08v2.958h30.227v-2.958l-11.098-4.08v-43.569h15.826v-5.225h-15.848v-9.889c0-6.305 1.123-10.32 4.188-12.738a16.063 16.063 0 019.78-3.412l1.555.129 3.001 7.146h7.038v-9.888a30.096 30.096 0 00-10.989-1.749h-.064zm-123.73 29.147c-15.394 0-27.527 12.307-27.527 30.378 0 16.689 11.767 28.392 26.06 28.392 15.221 0 27.916-12.825 27.916-30.486 0-16.797-11.724-28.283-26.427-28.283h-.022zm0 53.522c-9.435 0-15.113-9.24-15.113-24.894 0-14.832 5.225-23.36 14.034-23.36 9.543 0 15.113 9.478 15.113 25.692 0 14.228-5.16 22.562-13.991 22.562h-.043zm-442.75-39.855l-11.702-8.355c-7.859-5.397-11.4-7.988-11.4-13.688 0-8.226 7.254-12.069 18.417-12.069 1.869.025 3.735.148 5.592.367l.885.108 5.333 15.113h4.145v-17.704l-1.684-.432-4.577-1.08a44.272 44.272 0 00-5.873-1.144c-3.196-.367-6.478-.712-8.42-.712-12.76.021-23.231 8.657-23.231 21.828a17.851 17.851 0 002.721 10.082c2.029 3.735 5.203 5.657 11.054 9.716l11.982 8.054c7.859 5.635 10.99 8.895 10.99 15.113 0 8.636-7.406 13.321-17.855 13.321a45.462 45.462 0 01-8.161-.67l-5.44-15.523H3.379v18.33l1.058.367 6.24 1.619a58.093 58.093 0 0013.516 1.965c14.465 0 25.671-8.809 25.671-22.691a21.437 21.437 0 00-3.778-12.069c-2.159-3.476-4.448-4.685-11.594-9.845h.063zm506.96-12.954c-3.239 0-9.673 2.354-15.912 5.938v-7.276l-19.259 4.793v2.634l8.636 3.001v70.773l-8.636 3.584v2.937h30.227v-2.894l-10.579-3.584v-23.749c1.941.643 3.979.949 6.023.907 17.157.239 31.26-13.475 31.5-30.632a28.36 28.36 0 000-.825c0-14.574-10.558-25.693-22.021-25.693l.021.086zm-8.637 51.816c-2.158 0-4.793-.107-7.103-.367v-42.771a28.622 28.622 0 0110.233-1.727c10.32 0 17.272 8.766 17.272 21.979 0 14.336-7.557 22.734-20.403 22.734v.152z"/></svg>