<svg viewBox="0 0 96.688 17.031" xmlns="http://www.w3.org/2000/svg"><path d="M3.996 16.9c-1.154-.18-2.146-.615-2.829-1.241C.716 15.248.14 14.455.191 14.32c.021-.052.413-.187.941-.323.499-.13.957-.251 1.016-.269.064-.02.154.025.222.109.809 1.01 1.584 1.34 3.148 1.344 1.212 0 2.018-.258 2.313-.74.167-.276.163-.732-.01-.953-.256-.324-.558-.412-2.511-.735-2.081-.347-2.374-.417-3.032-.731C1.2 11.507.658 10.496.851 9.362c.292-1.705 1.871-2.613 4.539-2.613 1.932 0 3.347.475 4.345 1.454.47.462.654.785.505.878-.038.023-.527.155-1.088.293l-1.02.248-.222-.268c-.484-.583-1.288-.849-2.583-.853-.615 0-.923.026-1.227.113-1.18.338-1.265 1.477-.134 1.804.122.035 1.062.219 2.091.407 2.399.439 2.997.648 3.583 1.248.376.385.594.895.635 1.492.127 1.86-1.146 3.062-3.557 3.356-.731.092-2.069.082-2.722-.021zm46.507-.009c-1.667-.26-2.774-.919-3.603-2.145-.173-.256-.219-.442-.125-.502.027-.017.491-.147 1.028-.292l.977-.263.125.18c.409.575 1.03.98 1.812 1.182.827.215 2.056.188 2.82-.062 1.067-.346 1.301-1.46.383-1.827-.149-.06-1.098-.247-2.104-.418-1.009-.17-2.034-.368-2.276-.441-.98-.295-1.653-.798-2.001-1.494-.131-.267-.149-.393-.149-1.032 0-.692.01-.749.203-1.143.574-1.165 1.882-1.796 3.877-1.873 1.954-.076 3.433.302 4.496 1.149.486.388.925.959.839 1.096-.041.064-.41.189-1.009.342-.961.241-1.228.281-1.228.187 0-.113-.464-.524-.763-.677-.922-.466-2.713-.521-3.531-.107-.814.414-.755 1.331.104 1.624.164.056 1.081.243 2.038.417.956.172 1.947.371 2.203.442.957.266 1.661.77 1.957 1.404.197.422.276 1.056.2 1.598-.258 1.82-1.96 2.768-4.929 2.744-.437 0-1.04-.044-1.347-.093l.003.004zm-37.855-.106c-.109-.109-.109-9.732 0-9.841.121-.121 8.799-.109 8.899.013.049.059.066.363.055.933l-.019.845-6.925.034v2.021l6.23.036.018.848c.014.639-.003.862-.063.901-.044.027-1.454.051-3.133.052h-3.052v2.34l3.463.016 3.462.017.019.846c.013.568-.006.874-.055.933-.099.114-8.778.126-8.899.006zm11.546.012c-.103-.063-.109-.367-.109-4.928 0-4.195.013-4.87.092-4.935.07-.06.857-.07 3.399-.051 3.134.027 3.334.035 3.802.163.271.075.636.212.808.305.416.228.91.761 1.121 1.209.154.33.171.433.17 1.09-.001.847-.095 1.126-.542 1.611l-.269.291.151.104c.326.221.715.688.904 1.087.188.396.198.457.198 1.179s-.011.777-.202 1.184a2.644 2.644 0 01-1.248 1.283c-.831.41-.956.422-4.749.451-2.374.017-3.449 0-3.526-.043zm6.651-1.838c.643-.139 1.017-.548 1.017-1.113 0-.188-.038-.434-.086-.547-.109-.264-.421-.524-.723-.608-.141-.041-1.156-.064-2.56-.064H26.17v2.402h2.179c1.315-.002 2.305-.027 2.496-.07zm-.153-4.238c.819-.225.986-1.262.285-1.773-.271-.2-.78-.244-2.822-.244h-1.983v2.087h2.134c1.342-.001 2.228-.027 2.386-.07zm4.082 6.047c-.09-.108-.276.268 2.953-5.978l2.012-3.891.892-.019c.694-.015.907 0 .963.069.039.046 1.185 2.256 2.543 4.907 2.009 3.92 2.457 4.839 2.394 4.914-.063.074-.271.088-1.126.074l-1.05-.017-.569-1.123-.569-1.122h-5.185l-.57 1.122-.569 1.123-1.019.017c-.85.019-1.034.004-1.1-.076zm6.698-5.669c-.455-.907-.834-1.642-.844-1.629-.01.014-.392.757-.85 1.651l-.831 1.629h3.349l-.824-1.651zm20.571 5.686c-.059-.059-.076-1.043-.076-4.048V8.766h-1.766c-.971 0-1.81-.019-1.864-.041-.15-.058-.15-1.764 0-1.82.055-.021 2.169-.039 4.699-.039 3.491 0 4.617.02 4.675.078.051.049.075.337.075.872 0 .537-.024.821-.075.874-.055.055-.56.076-1.866.076h-1.79v3.948c0 3.505-.011 3.96-.1 4.048-.08.08-.263.1-.968.1-.59-.001-.892-.024-.944-.077zm8.035.034c-.063-.024-.079-1.075-.079-4.954 0-4.43.01-4.925.101-4.958.194-.075 1.831-.042 1.911.037.11.109.11 9.729 0 9.841-.075.077-1.756.106-1.933.034zm3.34-.05c-.061-.073.404-1.019 2.437-4.949 1.382-2.672 2.543-4.878 2.581-4.903.039-.025.442-.047.897-.047.711 0 .842.015.925.109.054.061 1.197 2.259 2.545 4.886 1.793 3.499 2.431 4.801 2.389 4.869-.048.076-.249.099-1.063.111-.553.01-1.036-.012-1.075-.033-.039-.025-.316-.539-.617-1.138l-.545-1.091h-5.219l-.506 1.052c-.278.579-.544 1.093-.59 1.138-.126.127-2.053.119-2.158-.01v.006zm6.694-5.678l-.831-1.66-.812 1.611c-.444.888-.812 1.635-.813 1.66-.002.027.736.047 1.642.047h1.645l-.831-1.658zm6.534 5.694c-.109-.109-.109-9.732 0-9.841.052-.053.349-.078.923-.078h.849l.168.18c.093.101 1.506 1.681 3.141 3.514l2.973 3.334.018-3.463c.013-2.674.034-3.474.095-3.513.091-.059 1.633-.068 1.78-.014.09.035.101.53.101 4.958s-.011 4.924-.101 4.958c-.198.077-1.706.043-1.809-.04-.054-.044-1.475-1.602-3.157-3.462l-3.061-3.383-.017 3.411c-.014 2.632-.034 3.422-.096 3.461-.132.082-1.72.063-1.806-.025l-.001.003zM18.443 3.558c-1.023-.289-1.546-1.539-1.079-2.579.5-1.114 2.093-1.352 2.945-.441.814.872.559 2.405-.487 2.913-.35.167-.988.218-1.379.107zm1.216-.406c.645-.326.944-1.067.73-1.805-.198-.679-.695-1.055-1.398-1.055-.688 0-1.197.373-1.389 1.02-.122.413-.122.579.002.996.258.87 1.225 1.265 2.055.844zm24.197.398a1.412 1.412 0 01-.43-.265l-.184-.177.145-.108c.139-.104.15-.104.303.038.33.307.643.367 1.044.197.262-.108.447-.443.385-.692-.059-.234-.226-.382-.583-.513-1.007-.365-1.188-.539-1.181-1.129.005-.376.145-.589.524-.782.443-.228 1.058-.158 1.403.154.145.131.142.16-.017.259-.113.07-.155.061-.322-.08-.322-.27-1.013-.182-1.191.152-.104.197-.076.542.063.718.071.09.271.209.459.271.953.309 1.185.516 1.185 1.054.001.722-.818 1.183-1.603.903zm8.158 0a1.424 1.424 0 01-.43-.265l-.185-.177.145-.108c.14-.104.15-.104.304.042.563.536 1.455.262 1.455-.45 0-.213-.229-.424-.604-.561-.616-.221-.946-.407-1.057-.593-.152-.258-.145-.745.018-1.009.311-.509 1.297-.614 1.753-.187.176.162.177.187.014.287-.112.07-.154.061-.32-.08-.215-.181-.619-.219-.911-.086-.291.133-.436.587-.281.878.077.143.396.312.885.47.661.215.861.476.808 1.049-.066.688-.821 1.062-1.59.788v.003h-.004zm15.469-.023a1.675 1.675 0 01-.992-.864c-.162-.314-.188-.435-.187-.849.007-1.163.815-1.916 1.96-1.824.716.059 1.256.47 1.52 1.159.145.378.101 1.159-.087 1.521-.408.79-1.364 1.16-2.214.857zm1.145-.301c.546-.187.929-.776.929-1.433 0-.612-.294-1.103-.806-1.354-.294-.145-.394-.16-.783-.134-.355.026-.499.067-.71.215-.589.407-.794 1.341-.447 2.034.326.655 1.063.928 1.817.672zM.808 1.8V.021l.717.028c.781.028 1.019.112 1.267.446.164.221.176.722.021.956-.199.305-.403.387-1.052.419l-.603.033-.018.837-.018.838H.808V1.8zm1.616-.4c.169-.169.21-.511.087-.739C2.407.467 2.062.355 1.57.355h-.445v1.201h.571c.524 0 .585-.014.728-.156zm6.638 2.103c-.02-.046-.025-.838-.017-1.76L9.063.068h.728c.554 0 .774.028.927.109.739.392.665 1.369-.125 1.643l-.234.082.475.782c.261.432.476.811.476.841 0 .033-.075.049-.168.037-.142-.016-.246-.151-.666-.856l-.5-.838h-.563l-.018.838c-.018.815-.021.837-.16.858-.078.012-.157-.02-.176-.064v.004h.003zm1.506-2.021c.21-.111.293-.251.295-.498.004-.449-.299-.63-1.059-.63H9.41v1.201h.51c.28.001.572-.034.648-.073zm16.391 2.021c-.019-.046-.024-.838-.017-1.76L26.96.068h1.043c1.035 0 1.045 0 1.063.143.021.142.019.144-.87.144h-.89v1.197l.807.019c.782.018.808.021.826.16.021.141.016.143-.804.143h-.825l-.018.839c-.019.815-.021.837-.161.858-.076.009-.155-.021-.172-.068zm8.157 0c-.019-.044-.023-.834-.016-1.755l.019-1.676 1.06-.016 1.06-.018v.318h-1.771v1.202h1.646v.316h-1.646v1.393h1.835v.315h-1.077c-.812.002-1.088-.019-1.11-.079zm24.701-1.685V.043h.318l-.018 1.754-.017 1.756-.143.02-.144.021V1.817h.004zm16.254 0V.039l.204.021c.188.018.285.132 1.249 1.512l1.045 1.494.036-3.02h.313v3.55l-.205-.021c-.189-.019-.281-.129-1.249-1.519L76.42.558l-.032 1.498c-.03 1.494-.031 1.498-.174 1.519l-.143.021V1.818zm9.314 1.649c.019-.071.356-.872.752-1.776.952-2.183.819-2.184 1.748.016.385.913.709 1.703.72 1.755.015.063-.03.096-.135.096-.166 0-.227-.083-.444-.616l-.123-.3h-1.84l-.097.24c-.206.517-.313.677-.466.698-.125.017-.144-.003-.115-.113zm2.367-1.224a71.19 71.19 0 01-.359-.868c-.18-.435-.346-.812-.369-.834-.023-.024-.218.368-.433.869l-.39.913h.791c.608 0 .784-.018.76-.078v-.002zm7.04-.458V.047h.314v3.162h1.645v.316h-1.96l.001-1.74z" fill="#231F20"/></svg>