<svg viewBox="0 0 733.67 466.6" xmlns="http://www.w3.org/2000/svg"><g clip-rule="evenodd" fill="#231F20" fill-rule="evenodd"><path d="M317.27 303.54h-80.018s-7.249-.135-7.249 5.72v21.637h70.628v21.509h-70.628v24.056s-.127 6.491 5.473 6.491h83.748s4.076-.05 6.552 3.252c2.477 3.302 3.81 7.556 4.064 10.54s.254 7.62.254 7.62h-98.703s-26.08-1.939-26.08-23.703v-77.511s1.146-20.873 24.182-20.873h100.04s-.636 22.781-12.262 21.262zM0 282.13l39.499 122.58h24.209l33.638-87.918 32.619 87.918h24.974l41.08-122.94h-24.946l-29.13 87.01-28.398-79.755s-.891-5.728-10.182-5.728-18.248-1.161-22.071 7.758c-3.822 8.92-28.032 77.725-28.032 77.725l-27.896-86.647L0 282.136zM345.81 281.62h23.939v95.627s.916 6.35 5.806 6.35h66.798s4-.317 6.54 5.524 2.413 15.811 2.413 15.811h-84.6s-21.012-2.001-21.012-22.62.116-100.69.116-100.69zM463.54 281.62h23.94v95.627s.915 6.35 5.805 6.35h74.18l-10.751 21.335h-72.278s-21.012-2.001-21.012-22.62c.001-20.619.116-100.69.116-100.69zM570.46 404.97h28.128l11.71-24.055h81.965l11.328 23.928h28.764l-54.219-113.4s-5.474-9.927-15.4-9.927h-23.419s-8.655.254-14.637 10.055c-5.983 9.8-54.22 113.4-54.22 113.4zm47.51-42.309h66.512c-10.211-18.968-16.49-38.125-26.814-57.031-2.424-4.438-9.967-3.735-12.182.227-10.843 19.397-18.941 37.985-27.516 56.804zM700.7 464.06l-.205-.423.072-.673.097-1.021a83.01 83.01 0 00.325-3.609l.81-.222c3.803 2.233 7.991 3.359 12.591 3.359 1.954 0 3.596-.183 4.913-.538 1.906-.492 3.367-1.271 4.357-2.34.966-1.058 1.447-2.252 1.447-3.579 0-1.512-.603-2.782-1.809-3.841v-.029l-.038-.028v-.029l-.035-.019c-.965-.79-2.209-1.473-3.742-2.03-.761-.327-1.714-.646-2.861-.964-.122-.037-.29-.086-.494-.145l-3.61-1.26a5.995 5.995 0 01-.53-.203l-.567-.191c-3.756-1.415-6.397-2.858-7.955-4.351-1.98-1.876-2.97-4.1-2.97-6.679 0-3.686 1.812-6.544 5.443-8.575 3.091-1.724 7.11-2.589 12.061-2.589 4.104 0 7.883.481 11.347 1.434l.748.202c.206.059.507.145.881.279l.423.395a62.331 62.331 0 00-.567 5.101l-.627.289c-4.226-1.829-8.173-2.743-11.855-2.743-2.571 0-4.707.386-6.435 1.136-2.303 1.01-3.463 2.521-3.463 4.533 0 1.829 1.206 3.329 3.645 4.513 1.125.549 3.007 1.262 5.613 2.147l3.719 1.27c4.104 1.405 6.977 2.791 8.632 4.139 2.401 1.973 3.608 4.466 3.608 7.478 0 3.514-1.594 6.42-4.779 8.711-3.37 2.425-8.029 3.638-13.968 3.638-4.454 0-8.908-.741-13.363-2.233a6.42 6.42 0 01-.859-.31zm-5.902 1.272l-.362.395c-4.008 0-8.619.02-13.859.058l-5.02.029-5.239.057-3.562.029-.435-.395c.168-4.476.266-8.104.29-10.885.049-2.165.071-4.591.071-7.275v-3.888c0-7.018-.168-13.051-.494-18.104l.423-.395a287.04 287.04 0 004.2-.087l1.497-.028 1.582-.029 1.063-.029.421.337a220.653 220.653 0 00-.277 6.544c-.121 2.214-.205 4.89-.254 8.008l-.023 1.126v1.184a319.995 319.995 0 00-.072 6.795v4.879c0 2.56.048 4.908.132 7.055h7.679c.941 0 4.996-.098 12.167-.289l.423.452c-.171 1.318-.28 2.8-.351 4.456zm-48.732-16.689l-6.942-19.461-7.594 19.461c.942 0 2.138.01 3.599.028h1.811l1.835.02 1.811-.02h1.837c1.457-.018 2.677-.028 3.643-.028zm15.138 16.572l-.291.453c-3.115.058-5.914.115-8.414.173l-.494-.395c-1.208-3.589-2.016-5.957-2.438-7.112-.265-.713-.52-1.424-.785-2.137l-.386-1.049-.388-1.097-.289-.731-1.085-.028c-3.682-.078-6.327-.116-7.932-.116-1.618 0-4.273.038-7.955.116l-1.062.028a420.96 420.96 0 00-4.274 11.895l-.494.396c-2.222.038-4.708.096-7.461.173l-.289-.395a398.05 398.05 0 011.774-4.119l.844-1.943.919-2.147 1.629-3.715 1.484-3.445 1.484-3.436 1.559-3.725.53-1.184.459-1.126c2.45-5.697 4.346-10.279 5.697-13.733l.496-1.463.592-.395c3.065-.039 6.506-.097 10.332-.174l.532.395.349.992.955 2.531.88 2.318.893 2.339.955 2.503a316.305 316.305 0 003.284 8.268c2.292 5.86 4.525 11.48 6.722 16.861l.206.528c.459 1.098.87 2.138 1.243 3.138l.219.558zm-50.144.117l-.363.395a186.75 186.75 0 00-8.909.173l-.603-.395c-4.334-6.246-6.99-10.019-7.957-11.337a451.445 451.445 0 00-2.087-2.936 336.376 336.376 0 00-2.825-3.917l-11.455-16.294.737 19.816.106 2.311.073 2.146.074 2.031.095 2.223c.073 2.261.17 4.187.29 5.784l-.362.395c-2.111-.02-4.466.039-7.037.173l-.423-.395c.17-4.533.266-7.911.289-10.124.05-1.338.073-2.83.073-4.485v-3.272c0-6.843-.049-11.587-.145-14.233-.146-3.57-.218-5.621-.218-6.149 0-.55-.012-1.06-.036-1.551l-.036-.336.362-.395c2.595-.039 5.697-.097 9.33-.174l.822.395c.374.587.855 1.28 1.448 2.088a309.532 309.532 0 003.079 4.457l1.025 1.463.628.905.712.98.64.963.663.933 1.209 1.742a474.808 474.808 0 005.298 7.565l8.981 12.569-.591-19.114c-.049-1.616-.097-3.378-.146-5.273-.048-1.127-.12-2.676-.216-4.649l-.037-.567a129.991 129.991 0 00-.242-3.888l.425-.395c2.075.019 4.368-.039 6.892-.174l.436.395v1.097c0 .434-.037 2.041-.11 4.822-.022 1.261-.06 4.476-.108 9.644v4.822l-.035 3.107v2.05c0 4.235.06 8.297.181 12.185l.073 2.424zm-73.105-36.457c-5.071 0-8.897 1.607-11.494 4.822-1.351 1.675-2.306 3.85-2.873 6.544-.372 1.781-.553 3.408-.553 4.87 0 3.109.519 5.938 1.579 8.489.931 2.261 2.331 4.061 4.214 5.418 2.5 1.819 5.528 2.733 9.089 2.733 2.646 0 4.89-.423 6.762-1.271.494-.24.904-.472 1.229-.674 1.16-.771 1.788-1.223 1.872-1.356.001-.02.023-.049.073-.088 0-.019.023-.048.071-.076 1.727-2.05 2.729-3.397 3.007-4.033 1.23-2.713 1.834-5.678 1.834-8.911 0-3.196-.508-6.063-1.521-8.604-.844-2.1-2.147-3.821-3.923-5.16-2.425-1.798-5.553-2.703-9.366-2.703zm-.073-4.792c3.26 0 6.205.384 8.837 1.155 1.967.567 3.499 1.193 4.634 1.887l.182.115c6.579 3.887 9.862 9.989 9.862 18.295 0 7.372-2.584 12.926-7.738 16.668-4.03 2.927-9.318 4.399-15.849 4.399-5.021 0-9.331-.905-12.94-2.705-7.025-3.541-10.539-9.633-10.539-18.304 0-7.026 2.378-12.513 7.147-16.439 4.115-3.377 9.595-5.071 16.404-5.071zm-32.4 41.249l-.495.395c-2.427-.02-5.105.039-8.063.173l-.423-.395c.266-3.917.387-8.411.387-13.512 0-.559-.013-2.781-.024-6.65l-.036-2.906v-3.157l-.036-1.271v-1.212c-.072-4.341-.181-7.324-.326-8.941-.024-.5-.061-1.029-.097-1.579-.023-.104-.048-.423-.072-.923l.423-.395c2.004-.021 4.683-.097 8.063-.231l.423.452c-.049 1.935-.12 3.994-.218 6.179a291.494 291.494 0 00-.134 9.019l.001 3.186c-.025 8.342.181 15.599.627 21.768zm-50.254-1.272l-.204-.423.072-.673.096-1.021c.121-1.049.23-2.252.326-3.609l.809-.222c3.803 2.233 7.992 3.359 12.592 3.359 1.955 0 3.597-.183 4.913-.538 1.906-.492 3.367-1.271 4.356-2.34.966-1.058 1.448-2.252 1.448-3.579 0-1.512-.603-2.782-1.81-3.841v-.029l-.036-.028v-.029l-.037-.019c-.965-.79-2.209-1.473-3.742-2.03-.76-.327-1.714-.646-2.86-.964-.12-.037-.29-.086-.495-.145l-3.609-1.26a5.965 5.965 0 01-.531-.203l-.567-.191c-3.754-1.415-6.398-2.858-7.954-4.351-1.979-1.876-2.97-4.1-2.97-6.679 0-3.686 1.811-6.544 5.443-8.575 3.091-1.724 7.109-2.589 12.059-2.589 4.105 0 7.884.481 11.348 1.434l.749.202c.205.059.507.145.881.279l.423.395a61.468 61.468 0 00-.566 5.101l-.629.289c-4.224-1.829-8.173-2.743-11.854-2.743-2.571 0-4.707.386-6.435 1.136-2.305 1.01-3.464 2.521-3.464 4.533 0 1.829 1.208 3.329 3.646 4.513 1.123.549 3.005 1.262 5.613 2.147l3.718 1.27c4.104 1.405 6.977 2.791 8.631 4.139 2.402 1.973 3.609 4.466 3.609 7.478.001 3.514-1.594 6.42-4.78 8.711-3.367 2.425-8.027 3.638-13.966 3.638-4.456 0-8.91-.741-13.364-2.233a6.42 6.42 0 01-.859-.31zm-39.255 0l-.205-.423.073-.673.096-1.021c.121-1.049.23-2.252.326-3.609l.809-.222c3.802 2.233 7.992 3.359 12.591 3.359 1.956 0 3.597-.183 4.913-.538 1.907-.492 3.368-1.271 4.357-2.34.965-1.058 1.448-2.252 1.448-3.579 0-1.512-.604-2.782-1.811-3.841v-.029l-.036-.028v-.029l-.036-.019c-.965-.79-2.209-1.473-3.743-2.03-.76-.327-1.714-.646-2.86-.964a30.71 30.71 0 00-.494-.145l-3.609-1.26a6.092 6.092 0 01-.531-.203l-.567-.191c-3.754-1.415-6.398-2.858-7.954-4.351-1.979-1.876-2.971-4.1-2.971-6.679 0-3.686 1.811-6.544 5.444-8.575 3.09-1.724 7.109-2.589 12.06-2.589 4.104 0 7.882.481 11.347 1.434l.749.202c.205.059.508.145.88.279l.424.395a61.891 61.891 0 00-.568 5.101l-.627.289c-4.225-1.829-8.173-2.743-11.854-2.743-2.571 0-4.707.386-6.435 1.136-2.305 1.01-3.464 2.521-3.464 4.533 0 1.829 1.208 3.329 3.646 4.513 1.123.549 3.006 1.262 5.613 2.147l3.718 1.27c4.104 1.405 6.978 2.791 8.632 4.139 2.401 1.973 3.608 4.466 3.608 7.478.001 3.514-1.593 6.42-4.779 8.711-3.369 2.425-8.027 3.638-13.968 3.638-4.454 0-8.908-.741-13.362-2.233a6.386 6.386 0 01-.86-.31zm-6.289 1.272l-.531.395c-4.346 0-9.367.02-15.063.058l-5.446.029-5.732.057-3.888.029-.361-.395c.241-4.812.361-10.923.361-18.334v-2.762c.023-4.302-.146-10.654-.495-19.056l.495-.395 3.924-.029 16.768-.085 5.793-.029 3.924-.029.386.395c-.229 1.732-.387 3.233-.459 4.514l-.494.395-2.752-.058c-6.604-.135-12.905-.203-18.893-.222-.084 3.889-.134 6.92-.134 9.104l.001 3.187h6.507c4.164 0 8.799-.058 13.895-.174l.423.395c-.206 1.731-.352 3.234-.423 4.514l-.423.395a942.312 942.312 0 00-16.876-.163h-3.103a654.3 654.3 0 00-.108 3.608l-.036 1.801a236.852 236.852 0 00-.036 2.174c0 .318.012 1.291.035 2.926.025 1.435.049 2.531.074 3.302h3.04c5.421 0 11.94-.097 19.557-.279l.351.396c-.149 1.236-.234 2.68-.281 4.336zm-56.664 0l-.35.395c-2.522-.02-5.311.039-8.377.173l-.362-.395.073-1.636c.168-3.292.264-7.006.289-11.145.048-3.282.073-6.246.073-8.873v-3.755c0-6.053-.098-10.22-.291-12.491l-.036-.731c-.072-.693-.108-1.204-.108-1.521l.362-.395h4.104c1.788 0 4.237-.011 7.352-.029l3.537-.029h3.888l5.166-.057 5.129-.059.352.395a224.288 224.288 0 00-.423 4.571l-.423.395a882.216 882.216 0 00-15.886-.26l-4.49-.029a310.238 310.238 0 00-.133 8.326v4.677c6.566-.058 12.566-.154 17.962-.278l.351.336a82.292 82.292 0 01-.314 3.156l-.108.877-.072.586-.423.395a2939.96 2939.96 0 00-17.262-.221c0 .452-.012.981-.037 1.607a40.81 40.81 0 00-.036 1.184v.452c0 1.338.036 3.224.108 5.669v.731l.037.76.036.645v.627c.047 2.501.156 4.484.312 5.947zm-41.476-36.457c-5.07 0-8.897 1.607-11.493 4.822-1.352 1.675-2.305 3.85-2.873 6.544-.373 1.781-.555 3.408-.555 4.87 0 3.109.519 5.938 1.581 8.489.931 2.261 2.33 4.061 4.213 5.418 2.499 1.819 5.528 2.733 9.09 2.733 2.643 0 4.888-.423 6.759-1.271.496-.24.905-.472 1.231-.674 1.159-.771 1.787-1.223 1.872-1.356 0-.02.023-.049.071-.088 0-.019.025-.048.073-.076 1.726-2.05 2.729-3.397 3.006-4.033 1.231-2.713 1.835-5.678 1.835-8.911 0-3.196-.507-6.063-1.521-8.604-.845-2.1-2.149-3.821-3.923-5.16-2.426-1.798-5.553-2.703-9.366-2.703zm-.072-4.792c3.259 0 6.204.384 8.835 1.155 1.968.567 3.5 1.193 4.635 1.887l.181.115c6.58 3.887 9.863 9.989 9.863 18.295 0 7.372-2.584 12.926-7.738 16.668-4.031 2.927-9.319 4.399-15.851 4.399-5.021 0-9.33-.905-12.94-2.705-7.025-3.541-10.538-9.633-10.538-18.304 0-7.026 2.378-12.513 7.147-16.439 4.117-3.377 9.597-5.071 16.406-5.071zm-56.266 19.594h1.376c.023 0 .133.01.314.029.096.019.362.029.82.029h.664c5.191 0 8.909-.655 11.179-1.944 2.258-1.281 3.393-3.042 3.393-5.274 0-.511-.073-1.04-.206-1.579-.338-1.241-.821-2.117-1.449-2.627-.023-.039-.108-.105-.254-.222a.592.592 0 00-.18-.145.44.44 0 00-.097-.105c-.99-.943-2.45-1.589-4.358-1.925-1.387-.26-3.38-.396-5.975-.396-.99 0-2.728.039-5.227.116a173.262 173.262 0 00-.072 5.188v3.493c0 1.993.025 3.784.072 5.362zm.628 21.655l-.422.395c-2.378-.02-5.034.039-7.955.173l-.459-.396.072-2.175c.157-5.36.241-10.26.241-14.716 0-5.418-.059-9.903-.168-13.454-.049-1.78-.242-5.053-.567-9.807l.422-.395h2.898l6.156-.115h7.46c4.599 0 8.353.663 11.287 2.002 4.116 1.857 6.181 4.927 6.181 9.19 0 3.829-1.956 6.843-5.867 9.027-1.812.991-3.959 1.762-6.435 2.31.327.413.762.896 1.304 1.435.169.231.338.441.532.654.192.202.361.403.529.587.821.943 1.813 2.089 2.97 3.445.423.501.943 1.117 1.558 1.828l.81.963.894 1.011c1.666 1.915 3.79 4.215 6.361 6.91l.953 1.01-.35.568c-2.861 0-5.83.077-8.908.222l-.507-.222c-1.413-2.03-3.369-4.514-5.868-7.449a118.525 118.525 0 01-2.679-3.292 192.717 192.717 0 00-2.306-2.818c-.302-.376-.567-.703-.774-.963a1.564 1.564 0 01-.29-.309c-.155-.192-.409-.471-.735-.847-.168-.192-.35-.375-.531-.568a4.633 4.633 0 01-.398-.452 22.621 22.621 0 01-.7-.73 256.71 256.71 0 00-3.187.058h-2.089c.049 3.069.122 6.265.218 9.585l.109 4.063.036.904c.047.452.083.846.096 1.183.047.55.084.944.108 1.185zm-42.794-19.827h1.593c3.78 0 6.688-.183 8.74-.559 3.164-.587 5.42-1.877 6.785-3.868.761-1.068 1.135-2.378 1.135-3.917 0-2.117-.652-3.802-1.944-5.043a8.737 8.737 0 00-3.813-2.061c-1.486-.394-3.525-.596-6.121-.596h-1.63c-1.956.02-3.537.077-4.745.173-.048 1.799-.06 3.821-.06 6.063v3.974c0 2.168.012 4.112.06 5.834zm.568 19.827l-.422.395c-2.377-.02-5.034.039-7.956.173l-.458-.395c.157-5.081.242-9.412.242-13.002v-7.025c-.048-8.133-.266-14.841-.665-20.124l.35-.395h1.799c.88 0 1.906-.021 3.078-.059a335.54 335.54 0 012.934-.057l4.888-.059c.049 0 .157-.01.35-.028.351-.02.918-.029 1.703-.029 5.987 0 10.188.626 12.626 1.867.085.029.253.106.494.222l.206.086a11.611 11.611 0 014.25 3.215c1.616 1.991 2.438 4.331 2.438 7.016 0 3.331-1.487 6.208-4.455 8.633-2.341 1.915-5.516 3.196-9.549 3.831-2.691.433-5.722.654-9.089.654h-.881c-.833 0-1.642-.021-2.451-.058.026 1.279.121 4.418.29 9.413.073 2.241.157 4.148.278 5.726zM159.03 53.604s7.39-3.313 12.232-12.232 27.777-21.916 56.319-15.036c28.541 6.88 60.905 34.403 88.427 52.751s54.79 36.951 81.802 40.519 56.828-.51 82.821-11.212c25.993-10.703 57.083-24.209 76.195-26.248s32.041 1.407 39.406 7.82c7.366 6.413 9.207 10.667 11.303 10.223 2.095-.444 2.741-15.883-9.096-25.81s-34.223-22.558-74.487-10.072c-40.263 12.486-72.881 33.383-110.34 30.325s-70.589-27.522-120.03-63.454S214.329-.421 202.861.853c-11.467 1.274-30.54 7.469-39.831 18.542-9.292 11.073-9.037 17.818-11.582 19.728-2.546 1.909-20.45 9.129-28.35 27.478s-5.606 32.364-10.958 36.951-26.875 19.828-30.821 22.119-6.619 5.218-4.073 11.709c2.545 6.491 12.346 10.564 10.309 15.146s-8.498 7.73-5.323 13.064 5.461 6.159 5.461 6.159-5.61 3.178-7.265 7.123c-1.655 3.946.153 6.401 1.741 7.291s2.984 2.921 2.413 6.096c-.572 3.175-4.408 17.16-.717 23.524s9.927 8.782 18.073 9.037c8.146.254 55.237-5.6 73.692.382s25.964 15.782 29.019 20.109c3.054 4.327 7.496 13.302 7.496 13.302s.444 1.46 2.413 1.333-.109-13.998-3.672-22.526c-3.564-8.527-11.083-18.426-25.863-25.562s-52.241-4.587-52.241-4.587-21.976 2.704-25.341-.788-3.683-8.445-1.587-12.318c2.095-3.873 4.508-7.302 3.492-9.715s-6.159-5.143-3.048-8.763c3.111-3.619 7.175-5.714 3.111-8.381-4.063-2.667-6.984-4.572-5.27-6.604s4.953-6.223 4.762-10.541c-.19-4.317-7.81-10.159-9.397-11.81s-3.429-3.873.254-6.096c3.683-2.222 31.199-19.565 33.872-30.002s-1.147-32.457 25.399-48.649z"/><path d="M214.62 58.789s-13.144 5.905-13.524 8.762c-.381 2.857 3.048 2.857 8.254 1.969 5.207-.889 18.08-3.033 33.099 4.095s31.709 18.703 63.619 53.126c33.054 35.658 72.438 53.468 114.93 51.477 42.493-1.991 92.25-24.209 102.44-29.561 10.194-5.352 40.633-18.15 64.306-15.223 23.674 2.928 39.71 20.492 39.71 20.492s3.945 3.563 3.945-1.655.128-19.855-18.327-31.055-47.331-12.567-70.775-6.197c-23.445 6.371-78.234 35.422-119.01 35.677s-64.728-14.78-78.744-24.464c-6.789-4.691-20.948-13.628-34.704-24.847-17.055-13.91-55.856-55.081-95.224-42.596z"/><path d="M271.41 143.56s23.699 23.19 36.951 38.99 50.458 53.515 106.27 51.476c55.809-2.038 75.176-16.054 142.71-38.989s91.74 15.29 91.74 15.29l3.583 5.709s3.309 2.164 3.436-6.746c.128-8.909.117-27.76-32.247-38.208s-71.863-4.842-130.98 18.603c-59.121 23.445-88.937 19.113-111.11 12.997s-49.948-26.503-68.041-42.812c-18.093-16.31-29.561-26.503-42.302-30.835-12.742-4.333-22.935-2.549-22.426.764.508 3.313 8.662-.509 22.424 13.761z"/></g></svg>