<?xml version="1.0" encoding="UTF-8" standalone="no"?>
<svg
   xmlns:dc="http://purl.org/dc/elements/1.1/"
   xmlns:cc="http://creativecommons.org/ns#"
   xmlns:rdf="http://www.w3.org/1999/02/22-rdf-syntax-ns#"
   xmlns:svg="http://www.w3.org/2000/svg"
   xmlns="http://www.w3.org/2000/svg"
   xmlns:sodipodi="http://sodipodi.sourceforge.net/DTD/sodipodi-0.dtd"
   xmlns:inkscape="http://www.inkscape.org/namespaces/inkscape"
   class="logo"
   viewBox="0 0 227.2843 75.730931"
   version="1.1"
   id="svg11"
   sodipodi:docname="logo2.svg"
   width="227.28523"
   height="75.730934"
   inkscape:version="0.92.5 (2060ec1f9f, 2020-04-08)">
  <metadata
     id="metadata15">
    <rdf:RDF>
      <cc:Work
         rdf:about="">
        <dc:format>image/svg+xml</dc:format>
        <dc:type
           rdf:resource="http://purl.org/dc/dcmitype/StillImage" />
        <dc:title></dc:title>
      </cc:Work>
    </rdf:RDF>
  </metadata>
  <sodipodi:namedview
     pagecolor="#ffffff"
     bordercolor="#666666"
     borderopacity="1"
     objecttolerance="10"
     gridtolerance="10"
     guidetolerance="10"
     inkscape:pageopacity="0"
     inkscape:pageshadow="2"
     inkscape:window-width="1920"
     inkscape:window-height="958"
     id="namedview13"
     showgrid="false"
     viewbox-width="244.43"
     fit-margin-top="0"
     fit-margin-left="0"
     fit-margin-right="0"
     fit-margin-bottom="0"
     inkscape:zoom="1.4564437"
     inkscape:cx="106.4413"
     inkscape:cy="37.864879"
     inkscape:window-x="0"
     inkscape:window-y="32"
     inkscape:window-maximized="1"
     inkscape:current-layer="g9" />
  <defs
     id="defs5">
    <clipPath
       id="a"
       clipPathUnits="userSpaceOnUse">
      <path
         d="M 0,595.276 H 841.89 V 0 H 0 Z"
         id="path2"
         inkscape:connector-curvature="0" />
    </clipPath>
  </defs>
  <g
     transform="matrix(0.35278,0,0,-0.35278,-43.773404,145.33054)"
     clip-path="url(#a)"
     id="g9">
    <path
       d="M 573.234,197.29 H 706.14 l -0.006,0.028 c 34.467,0.6 62.198,26.53 62.21,58.485 h 0.005 c 0,35.96 -25.937,47.282 -25.937,47.282 -13.662,8.572 -100.592,36.34 -100.592,36.34 -6.086,2.13 -11.373,5.997 -11.385,12.175 0.012,6.53 5.522,11.9 12.483,12.326 h -0.014 87.484 c 10.7,0 34.963,8.553 36.987,46.186 H 643.795 C 608.779,410.1 580.41,383.922 580.398,351.6 h -0.004 c 0.01,-20.016 12.785,-39.859 27.49,-48.206 14.704,-8.345 99.53,-35.483 99.53,-35.483 5.841,-2.02 10.884,-6.089 10.894,-12.108 -0.01,-6.53 -5.523,-11.859 -12.482,-12.285 h 0.013 -135.199 v 63.163 c 0.008,13.77 -2.658,27.013 -7.955,39.38 -5.568,12.972 -13.29,24.454 -22.955,34.13 -9.682,9.657 -21.238,17.458 -34.35,23.187 -13.095,5.691 -27.253,8.58 -42.062,8.58 -14.832,0 -28.99,-2.889 -42.09,-8.585 -13.1,-5.712 -24.655,-13.509 -34.337,-23.182 -9.679,-9.68 -17.41,-21.166 -22.968,-34.125 -5.297,-12.34 -7.983,-28.163 -7.975,-41.848 0,-0.775 0.012,0.721 0.033,0 V 197.29 h 46.147 v 106.928 c 0,8.468 1.581,16.687 4.836,24.286 3.204,7.561 7.511,13.936 13.155,19.474 5.697,5.526 12.076,9.77 19.52,13 7.474,3.238 15.216,4.82 23.671,4.828 8.46,-0.008 16.188,-1.59 23.647,-4.829 7.341,-3.169 13.91,-7.545 19.525,-12.994 5.643,-5.535 9.953,-11.903 13.18,-19.488 3.24,-7.585 4.818,-15.807 4.83,-24.277 v -73.276 c 0,-10.662 11.482,-32.647 48.76,-33.652 v 0.01 c 0.005,-0.003 0.007,-0.007 0.015,-0.01 m -279.684,44.89 h -61.115 c -16.942,0 -31.525,6.178 -43.35,18.366 -11.787,12.137 -17.76,26.831 -17.76,43.672 0,16.996 5.924,31.81 17.605,44.035 11.74,12.295 26.381,18.526 43.505,18.526 17.122,0 31.763,-6.23 43.503,-18.526 11.686,-12.225 17.612,-27.045 17.612,-44.035 z m -60.985,169.5 c -29.645,0 -55.423,-10.618 -76.609,-31.553 -21.173,-20.928 -31.909,-46.464 -31.909,-75.91 0,-29.433 10.731,-54.88 31.895,-75.633 21.188,-20.764 46.973,-31.295 76.623,-31.295 h 108.788 v 106.928 c 0,29.441 -10.78,54.976 -32.036,75.898 -21.282,20.947 -47.104,31.565 -76.752,31.565"
       id="path7"
       inkscape:connector-curvature="0"
       sodipodi:nodetypes="ccccccccccsccccccccccccccscccccccsccccccccsccccscscscscccscscscc" />
  </g>
</svg>
