<?xml version="1.0" encoding="UTF-8" standalone="no"?>
<svg
   xmlns:dc="http://purl.org/dc/elements/1.1/"
   xmlns:cc="http://creativecommons.org/ns#"
   xmlns:rdf="http://www.w3.org/1999/02/22-rdf-syntax-ns#"
   xmlns:svg="http://www.w3.org/2000/svg"
   xmlns="http://www.w3.org/2000/svg"
   xmlns:sodipodi="http://sodipodi.sourceforge.net/DTD/sodipodi-0.dtd"
   xmlns:inkscape="http://www.inkscape.org/namespaces/inkscape"
   class="logo"
   viewBox="0 0 51.541816 62.244722"
   version="1.1"
   id="svg11"
   sodipodi:docname="marker.svg"
   width="51.541817"
   height="62.244724"
   inkscape:version="0.92.3 (2405546, 2018-03-11)">
  <metadata
     id="metadata15">
    <rdf:RDF>
      <cc:Work
         rdf:about="">
        <dc:format>image/svg+xml</dc:format>
        <dc:type
           rdf:resource="http://purl.org/dc/dcmitype/StillImage" />
        <dc:title></dc:title>
      </cc:Work>
    </rdf:RDF>
  </metadata>
  <sodipodi:namedview
     pagecolor="#ffffff"
     bordercolor="#666666"
     borderopacity="1"
     objecttolerance="10"
     gridtolerance="10"
     guidetolerance="10"
     inkscape:pageopacity="0"
     inkscape:pageshadow="2"
     inkscape:window-width="1680"
     inkscape:window-height="1020"
     id="namedview13"
     showgrid="false"
     fit-margin-top="0"
     fit-margin-left="0"
     fit-margin-right="0"
     fit-margin-bottom="0"
     inkscape:zoom="2.5284028"
     inkscape:cx="64.773157"
     inkscape:cy="13.932258"
     inkscape:window-x="3840"
     inkscape:window-y="0"
     inkscape:window-maximized="1"
     inkscape:current-layer="g9" />
  <defs
     id="defs5">
    <clipPath
       id="a"
       clipPathUnits="userSpaceOnUse">
      <path
         d="M 0,595.276 H 841.89 V 0 H 0 Z"
         id="path2"
         inkscape:connector-curvature="0" />
    </clipPath>
  </defs>
  <g
     transform="matrix(0.35278,0,0,-0.35278,-56.281024,130.62338)"
     clip-path="url(#a)"
     id="g9">
    <path
       d="m 231.98891,238.24222 -29.28315,29.28315 c -8.11773,8.11773 -12.14497,18.06533 -11.97104,29.57112 0.1677,11.46314 4.34635,21.3657 12.41569,29.43504 8.1436,8.1436 18.08018,12.40323 29.5347,12.66389 11.51633,0.26593 21.51712,-3.76371 29.72205,-11.96865 8.20398,-8.20398 12.2341,-18.20428 11.96769,-29.72109 -0.25826,-11.45692 -4.5198,-21.39733 -12.66054,-29.53806 z m 51.99479,110.4365 c -14.20436,14.20435 -31.64344,21.46824 -51.82565,21.58851 -20.17262,0.11739 -37.55229,-6.974 -51.66129,-21.08301 -14.10278,-14.10277 -21.15392,-31.4374 -20.95699,-51.52186 0.20315,-20.10123 7.51208,-37.50198 21.71883,-51.70873 l 52.12559,-52.12559 51.23437,51.23438 c 14.10661,14.1066 21.17644,31.50687 21.01641,51.71639 -0.16051,20.23396 -7.44549,37.69412 -21.65127,51.89991"
       id="path7"
       inkscape:connector-curvature="0"
       sodipodi:nodetypes="cscscscscccscscscc"
       style="stroke-width:0.67761809;fill:#ee4444;fill-opacity:1" />
  </g>
</svg>
