<?xml version="1.0" standalone="no"?>
<!DOCTYPE svg PUBLIC "-//W3C//DTD SVG 20010904//EN"
 "http://www.w3.org/TR/2001/REC-SVG-20010904/DTD/svg10.dtd">
<svg version="1.0" xmlns="http://www.w3.org/2000/svg"
 width="512.000000pt" height="512.000000pt" viewBox="0 0 512.000000 512.000000"
 preserveAspectRatio="xMidYMid meet">
<metadata>
Created by potrace 1.11, written by Peter Selinger 2001-2013
</metadata>
<g transform="translate(0.000000,512.000000) scale(0.100000,-0.100000)"
fill="#000000" stroke="none">
<path d="M515 5105 c-84 -18 -140 -42 -215 -90 -142 -92 -237 -224 -280 -389
-18 -68 -19 -151 -19 -2061 1 -2205 -4 -2055 68 -2200 69 -138 171 -238 308
-302 145 -67 -6 -63 2183 -62 2156 1 2041 -2 2172 57 106 48 170 98 258 202
37 43 99 182 115 255 12 60 14 349 14 2045 1 2196 5 2046 -68 2195 -89 179
-253 309 -442 349 -93 21 -4002 21 -4094 1z"/>
</g>
</svg>
