<?xml version="1.0" encoding="UTF-8" standalone="no"?>
<svg
   xmlns:dc="http://purl.org/dc/elements/1.1/"
   xmlns:cc="http://creativecommons.org/ns#"
   xmlns:rdf="http://www.w3.org/1999/02/22-rdf-syntax-ns#"
   xmlns:svg="http://www.w3.org/2000/svg"
   xmlns="http://www.w3.org/2000/svg"
   xmlns:sodipodi="http://sodipodi.sourceforge.net/DTD/sodipodi-0.dtd"
   xmlns:inkscape="http://www.inkscape.org/namespaces/inkscape"
   class="logo"
   viewBox="0 0 90 89.999997"
   version="1.1"
   id="svg11"
   sodipodi:docname="favicon.svg"
   width="90"
   height="90"
   inkscape:version="0.92.3 (2405546, 2018-03-11)">
  <metadata
     id="metadata15">
    <rdf:RDF>
      <cc:Work
         rdf:about="">
        <dc:format>image/svg+xml</dc:format>
        <dc:type
           rdf:resource="http://purl.org/dc/dcmitype/StillImage" />
        <dc:title></dc:title>
      </cc:Work>
    </rdf:RDF>
  </metadata>
  <sodipodi:namedview
     pagecolor="#ffffff"
     bordercolor="#666666"
     borderopacity="1"
     objecttolerance="10"
     gridtolerance="10"
     guidetolerance="10"
     inkscape:pageopacity="0"
     inkscape:pageshadow="2"
     inkscape:window-width="1920"
     inkscape:window-height="1050"
     id="namedview13"
     showgrid="false"
     fit-margin-top="0"
     fit-margin-left="0"
     fit-margin-right="0"
     fit-margin-bottom="0"
     inkscape:zoom="5.237191"
     inkscape:cx="45.147928"
     inkscape:cy="47.429928"
     inkscape:window-x="1920"
     inkscape:window-y="0"
     inkscape:window-maximized="1"
     inkscape:current-layer="g9" />
  <defs
     id="defs5">
    <clipPath
       id="a"
       clipPathUnits="userSpaceOnUse">
      <path
         d="M 0,595.276 H 841.89 V 0 H 0 Z"
         id="path2"
         inkscape:connector-curvature="0" />
    </clipPath>
  </defs>
  <g
     transform="matrix(0.35278,0,0,-0.35278,-115.56681,147.37871)"
     clip-path="url(#a)"
     id="g9">
    <rect
       style="opacity:1;vector-effect:none;fill:#333333;fill-opacity:1;stroke-width:4.35322905;stroke-linecap:butt;stroke-linejoin:miter;stroke-miterlimit:4;stroke-dasharray:none;stroke-dashoffset:0;stroke-opacity:1"
       id="rect827"
       width="255.1165"
       height="255.1165"
       x="327.5889"
       y="-417.76379"
       transform="scale(1,-1)"
       ry="32.441719" />
    <path
       d="m 509.58998,234.9638 h -56.31076 c -15.61017,0 -29.0468,5.69235 -39.94224,16.92224 -10.86041,11.18293 -16.36389,24.72183 -16.36389,40.23895 0,15.65995 5.45831,29.3094 16.22108,40.5734 10.8171,11.32848 24.30718,17.06967 40.08505,17.06967 15.77605,0 29.26612,-5.74026 40.08322,-17.06967 10.76738,-11.264 16.22754,-24.91899 16.22754,-40.5734 z m -56.19097,156.17559 c -27.3146,0 -51.06619,-9.78332 -70.58676,-29.07263 -19.50858,-19.28283 -29.40063,-42.81145 -29.40063,-69.94269 0,-27.11928 9.88744,-50.56588 29.38773,-69.68748 19.52242,-19.13173 43.28045,-28.8349 70.59966,-28.8349 h 100.23617 v 98.52238 c 0,27.12664 -9.9326,50.65432 -29.51765,69.93165 -19.60903,19.30035 -43.40115,29.08367 -70.71852,29.08367"
       id="path7"
       inkscape:connector-curvature="0"
       sodipodi:nodetypes="cscscscscccscscscc"
       style="fill:#ffffff;stroke-width:0.92138988" />
  </g>
</svg>
