<?xml version="1.0" standalone="no"?>
<!DOCTYPE svg PUBLIC "-//W3C//DTD SVG 20010904//EN"
 "http://www.w3.org/TR/2001/REC-SVG-20010904/DTD/svg10.dtd">
<svg version="1.0" xmlns="http://www.w3.org/2000/svg"
 width="700.000000pt" height="700.000000pt" viewBox="0 0 700.000000 700.000000"
 preserveAspectRatio="xMidYMid meet">
<metadata>
Created by potrace 1.11, written by Peter Selinger 2001-2013
</metadata>
<g transform="translate(0.000000,700.000000) scale(0.100000,-0.100000)"
fill="#000000" stroke="none">
<path d="M726 6984 c-183 -36 -315 -105 -450 -233 -121 -117 -202 -251 -248
-416 l-23 -80 -3 -2715 c-3 -2986 -6 -2802 58 -2968 43 -112 95 -195 179 -284
123 -131 255 -212 426 -260 l80 -23 2723 -3 c2632 -2 2726 -2 2815 17 188 38
340 123 473 264 88 93 140 175 184 289 64 164 60 -14 60 2928 0 2942 4 2764
-60 2928 -44 114 -96 196 -184 289 -132 140 -285 226 -471 264 -87 18 -194 19
-2790 18 -2238 -1 -2712 -3 -2769 -15z m3135 -743 c595 -87 1093 -339 1534
-776 237 -234 407 -468 540 -740 145 -297 221 -566 255 -904 6 -65 10 -627 10
-1537 l0 -1435 -1517 4 c-1502 3 -1519 3 -1651 24 -244 40 -470 104 -672 190
-546 233 -1063 707 -1342 1229 -146 272 -237 551 -284 866 -22 150 -29 476
-15 638 49 534 236 1003 568 1420 94 118 359 382 473 470 416 321 873 510
1355 559 61 6 126 13 145 15 90 11 472 -4 601 -23z"/>
<path d="M3167 5109 c-307 -54 -556 -186 -787 -418 -142 -143 -224 -254 -304
-411 -118 -230 -168 -445 -168 -725 0 -465 157 -828 500 -1157 258 -247 564
-381 932 -408 69 -5 468 -10 888 -10 l763 0 -4 908 c-3 883 -4 909 -24 1000
-68 297 -198 543 -403 764 -236 255 -533 413 -864 463 -145 21 -391 19 -529
-6z"/>
</g>
</svg>
