<?xml version="1.0" encoding="UTF-8" standalone="no"?>
<svg
   xmlns:dc="http://purl.org/dc/elements/1.1/"
   xmlns:cc="http://creativecommons.org/ns#"
   xmlns:rdf="http://www.w3.org/1999/02/22-rdf-syntax-ns#"
   xmlns:svg="http://www.w3.org/2000/svg"
   xmlns="http://www.w3.org/2000/svg"
   xmlns:sodipodi="http://sodipodi.sourceforge.net/DTD/sodipodi-0.dtd"
   xmlns:inkscape="http://www.inkscape.org/namespaces/inkscape"
   class="logo"
   viewBox="0 0 1200 629.99998"
   version="1.1"
   id="svg11"
   sodipodi:docname="og-image.svg"
   width="1200"
   height="630"
   inkscape:version="0.92.3 (2405546, 2018-03-11)">
  <metadata
     id="metadata15">
    <rdf:RDF>
      <cc:Work
         rdf:about="">
        <dc:format>image/svg+xml</dc:format>
        <dc:type
           rdf:resource="http://purl.org/dc/dcmitype/StillImage" />
        <dc:title></dc:title>
      </cc:Work>
    </rdf:RDF>
  </metadata>
  <sodipodi:namedview
     pagecolor="#ffffff"
     bordercolor="#666666"
     borderopacity="1"
     objecttolerance="10"
     gridtolerance="10"
     guidetolerance="10"
     inkscape:pageopacity="0"
     inkscape:pageshadow="2"
     inkscape:window-width="1920"
     inkscape:window-height="1050"
     id="namedview13"
     showgrid="false"
     inkscape:snap-page="true"
     inkscape:zoom="0.65464888"
     inkscape:cx="537.98756"
     inkscape:cy="390.2231"
     inkscape:window-x="1920"
     inkscape:window-y="0"
     inkscape:window-maximized="1"
     inkscape:current-layer="svg11" />
  <defs
     id="defs5">
    <clipPath
       id="a"
       clipPathUnits="userSpaceOnUse">
      <path
         d="M 0,595.276 H 841.89 V 0 H 0 Z"
         id="path2"
         inkscape:connector-curvature="0" />
    </clipPath>
    <clipPath
       id="a-3"
       clipPathUnits="userSpaceOnUse">
      <path
         d="M 0,595.276 H 841.89 V 0 H 0 Z"
         id="path2-6"
         inkscape:connector-curvature="0" />
    </clipPath>
  </defs>
  <rect
     style="opacity:1;vector-effect:none;fill:#333333;fill-opacity:1;stroke-width:12.78589725;stroke-linecap:butt;stroke-linejoin:miter;stroke-miterlimit:4;stroke-dasharray:none;stroke-dashoffset:0;stroke-opacity:1"
     id="rect825"
     width="1200"
     height="630"
     x="8.5265128e-14"
     y="5.2026722e-14"
     ry="0" />
  <g
     transform="matrix(1.0168786,0,0,-1.0168786,170.96621,624.76512)"
     clip-path="url(#a-3)"
     id="g9"
     style="fill:#ffffff">
    <path
       d="m 76.002,386.543 21.208,14.606 v 0.07 H 76.002 v 2.388 h 25.07 v -2.67 L 79.864,386.333 v -0.071 h 21.208 v -2.388 h -25.07 z m 16.556,-31.268 c 1.322,0.362 2.504,0.926 3.547,1.687 a 8.492,8.492 0 0 1 2.51,2.931 c 0.632,1.195 0.947,2.621 0.947,4.283 0,1.662 -0.315,3.083 -0.947,4.266 a 8.556,8.556 0 0 1 -2.51,2.915 10.835,10.835 0 0 1 -3.547,1.686 15.157,15.157 0 0 1 -4.02,0.543 15.12,15.12 0 0 1 -4.04,-0.543 10.864,10.864 0 0 1 -3.528,-1.686 8.546,8.546 0 0 1 -2.51,-2.915 c -0.632,-1.183 -0.947,-2.604 -0.947,-4.266 0,-1.662 0.315,-3.088 0.947,-4.283 0.632,-1.194 1.47,-2.172 2.51,-2.93 a 10.825,10.825 0 0 1 3.528,-1.688 15.12,15.12 0 0 1 4.04,-0.544 c 1.358,0 2.698,0.182 4.02,0.544 m -8.972,-2.193 c -1.568,0.491 -2.954,1.227 -4.16,2.212 -1.205,0.981 -2.164,2.216 -2.879,3.704 -0.715,1.486 -1.07,3.213 -1.07,5.178 0,1.966 0.355,3.687 1.07,5.162 0.715,1.474 1.674,2.703 2.88,3.687 1.205,0.983 2.591,1.721 4.16,2.212 a 16.48,16.48 0 0 0 4.95,0.738 c 1.733,0 3.383,-0.247 4.952,-0.738 1.568,-0.49 2.948,-1.229 4.142,-2.212 1.194,-0.984 2.148,-2.213 2.863,-3.687 0.712,-1.475 1.071,-3.196 1.071,-5.162 0,-1.965 -0.359,-3.692 -1.07,-5.178 -0.716,-1.488 -1.67,-2.723 -2.864,-3.704 -1.194,-0.985 -2.574,-1.72 -4.142,-2.212 a 16.42,16.42 0 0 0 -4.952,-0.738 c -1.732,0 -3.382,0.245 -4.95,0.738 m -7.585,-20.086 h 23.034 v 14.045 h 2.036 v -16.433 h -25.07 z m 15.238,-15.306 -12.85,-4.846 12.85,-5.02 z m -15.238,-3.407 25.07,9.833 v -2.564 l -7.795,-3.054 v -11.413 l 7.795,-3.018 v -2.53 l -25.07,10.078 z m 20.05,-34.619 c 0.866,0.42 1.557,1 2.071,1.736 0.516,0.74 0.884,1.61 1.105,2.617 a 14.9,14.9 0 0 1 0.334,3.23 c 0,0.655 -0.093,1.37 -0.28,2.142 a 7.42,7.42 0 0 1 -0.896,2.16 5.5,5.5 0 0 1 -1.579,1.668 c -0.644,0.443 -1.422,0.666 -2.336,0.666 -0.702,0 -1.31,-0.158 -1.826,-0.474 a 4.358,4.358 0 0 1 -1.3,-1.228 7.275,7.275 0 0 1 -0.858,-1.668 15.978,15.978 0 0 1 -0.545,-1.79 l -1.37,-5.583 a 16.307,16.307 0 0 0 -0.703,-2.124 5.965,5.965 0 0 0 -1.123,-1.809 5.293,5.293 0 0 0 -1.72,-1.246 c -0.679,-0.318 -1.509,-0.476 -2.493,-0.476 -0.609,0 -1.322,0.118 -2.142,0.353 -0.819,0.233 -1.59,0.672 -2.318,1.316 -0.725,0.643 -1.34,1.528 -1.842,2.652 -0.504,1.123 -0.755,2.562 -0.755,4.318 0,1.24 0.164,2.423 0.49,3.546 0.33,1.124 0.82,2.107 1.476,2.95 a 7.343,7.343 0 0 0 2.44,2.02 c 0.971,0.503 2.1,0.753 3.388,0.753 v -2.387 c -0.96,-0.048 -1.796,-0.263 -2.51,-0.65 a 5.608,5.608 0 0 1 -1.79,-1.509 6.597,6.597 0 0 1 -1.089,-2.143 8.679,8.679 0 0 1 -0.369,-2.545 c 0,-0.819 0.087,-1.61 0.263,-2.37 0.175,-0.76 0.456,-1.429 0.843,-2.002 a 4.363,4.363 0 0 1 1.527,-1.387 c 0.633,-0.35 1.416,-0.526 2.353,-0.526 0.585,0 1.094,0.1 1.527,0.298 0.433,0.198 0.801,0.473 1.105,0.826 0.306,0.35 0.551,0.755 0.74,1.211 0.185,0.457 0.338,0.942 0.455,1.457 l 1.51,6.11 c 0.235,0.89 0.522,1.726 0.861,2.51 0.34,0.783 0.76,1.476 1.263,2.072 a 5.355,5.355 0 0 0 1.844,1.404 c 0.726,0.34 1.603,0.51 2.633,0.51 0.282,0 0.656,-0.03 1.124,-0.089 a 5.69,5.69 0 0 0 1.492,-0.42 7.478,7.478 0 0 0 1.598,-0.949 c 0.537,-0.409 1.024,-0.97 1.457,-1.686 0.432,-0.713 0.784,-1.598 1.053,-2.65 0.27,-1.053 0.405,-2.318 0.405,-3.792 0,-1.476 -0.17,-2.844 -0.51,-4.109 -0.339,-1.264 -0.86,-2.34 -1.563,-3.229 -0.7,-0.89 -1.603,-1.575 -2.703,-2.055 -1.1,-0.48 -2.423,-0.685 -3.967,-0.615 v 2.388 c 1.287,-0.024 2.363,0.176 3.23,0.598 M 88.29,262.212 c 0,1.66 -0.42,3.008 -1.263,4.039 -0.843,1.028 -2.13,1.544 -3.862,1.544 -1.732,0 -3.02,-0.516 -3.863,-1.544 -0.843,-1.031 -1.263,-2.378 -1.263,-4.04 v -8.216 H 88.29 Z m -12.288,0.526 c 0,1.123 0.158,2.142 0.474,3.055 a 6.452,6.452 0 0 0 1.404,2.353 6.198,6.198 0 0 0 2.264,1.509 c 0.891,0.353 1.896,0.527 3.021,0.527 1.123,0 2.13,-0.174 3.02,-0.527 a 6.205,6.205 0 0 0 2.265,-1.51 6.464,6.464 0 0 0 1.403,-2.352 c 0.317,-0.913 0.475,-1.932 0.475,-3.055 v -8.743 h 10.744 v -2.387 h -25.07 z m 15.238,-24.05 -12.85,-4.847 12.85,-5.02 z m -15.238,-3.407 25.07,9.832 v -2.563 l -7.795,-3.054 v -11.413 l 7.795,-3.019 v -2.529 l -25.07,10.078 z m 0,-34.586 h 13.483 l -13.483,14.571 v 3.231 l 10.36,-11.2 14.71,11.726 v -3.089 l -13.06,-10.428 4.46,-4.81 h 8.6 v -2.389 H 76.002 Z M 573.234,197.29 H 706.14 l -0.006,0.028 c 34.467,0.6 62.198,26.53 62.21,58.485 h 0.005 c 0,35.96 -25.937,47.282 -25.937,47.282 -13.662,8.572 -100.592,36.34 -100.592,36.34 -6.086,2.13 -11.373,5.997 -11.385,12.175 0.012,6.53 5.522,11.9 12.483,12.326 h -0.014 87.484 c 10.7,0 34.963,8.553 36.987,46.186 H 643.795 C 608.779,410.1 580.41,383.922 580.398,351.6 h -0.004 c 0.01,-20.016 12.785,-39.859 27.49,-48.206 14.704,-8.345 99.53,-35.483 99.53,-35.483 5.841,-2.02 10.884,-6.089 10.894,-12.108 -0.01,-6.53 -5.523,-11.859 -12.482,-12.285 h 0.013 -135.199 v 63.163 c 0.008,13.77 -2.658,27.013 -7.955,39.38 -5.568,12.972 -13.29,24.454 -22.955,34.13 -9.682,9.657 -21.238,17.458 -34.35,23.187 -13.095,5.691 -27.253,8.58 -42.062,8.58 -14.832,0 -28.99,-2.889 -42.09,-8.585 -13.1,-5.712 -24.655,-13.509 -34.337,-23.182 -9.679,-9.68 -17.41,-21.166 -22.968,-34.125 -5.297,-12.34 -7.983,-28.163 -7.975,-41.848 0,-0.775 0.012,0.721 0.033,0 V 197.29 h 46.147 v 106.928 c 0,8.468 1.581,16.687 4.836,24.286 3.204,7.561 7.511,13.936 13.155,19.474 5.697,5.526 12.076,9.77 19.52,13 7.474,3.238 15.216,4.82 23.671,4.828 8.46,-0.008 16.188,-1.59 23.647,-4.829 7.341,-3.169 13.91,-7.545 19.525,-12.994 5.643,-5.535 9.953,-11.903 13.18,-19.488 3.24,-7.585 4.818,-15.807 4.83,-24.277 v -73.276 c 0,-10.662 11.482,-32.647 48.76,-33.652 v 0.01 c 0.005,-0.003 0.007,-0.007 0.015,-0.01 m -279.684,44.89 h -61.115 c -16.942,0 -31.525,6.178 -43.35,18.366 -11.787,12.137 -17.76,26.831 -17.76,43.672 0,16.996 5.924,31.81 17.605,44.035 11.74,12.295 26.381,18.526 43.505,18.526 17.122,0 31.763,-6.23 43.503,-18.526 11.686,-12.225 17.612,-27.045 17.612,-44.035 z m -60.985,169.5 c -29.645,0 -55.423,-10.618 -76.609,-31.553 -21.173,-20.928 -31.909,-46.464 -31.909,-75.91 0,-29.433 10.731,-54.88 31.895,-75.633 21.188,-20.764 46.973,-31.295 76.623,-31.295 h 108.788 v 106.928 c 0,29.441 -10.78,54.976 -32.036,75.898 -21.282,20.947 -47.104,31.565 -76.752,31.565"
       id="path7"
       inkscape:connector-curvature="0"
       style="fill:#ffffff" />
  </g>
</svg>
